<svg width="256" height="256" viewBox="0 0 256 256" fill="none" xmlns="http://www.w3.org/2000/svg">
<g clip-path="url(#clip0_1_18)">
<path d="M42.992 51.36L123.984 117.232C116.352 118.816 110.592 125.712 110.592 133.952C110.592 136.08 110.976 138.112 111.664 139.984L27.296 71.392C24.6762 69.2441 23.0017 66.1558 22.6308 62.7885C22.26 59.4212 23.2224 56.0425 25.312 53.376C26.3268 52.0639 27.5943 50.9685 29.0395 50.1544C30.4847 49.3403 32.0784 48.8241 33.7265 48.6362C35.3745 48.4482 37.0435 48.5925 38.6349 49.0603C40.2263 49.5281 41.7078 50.3101 42.992 51.36Z" fill="black"/>
<path d="M119.712 149.152L16.96 172.928C15.3385 173.29 13.6613 173.327 12.0253 173.038C10.3893 172.748 8.827 172.137 7.42855 171.24C6.0301 170.343 4.82327 169.177 3.87779 167.811C2.9323 166.445 2.26689 164.905 1.92001 163.28C1.16401 159.993 1.73446 156.54 3.50764 153.67C5.28083 150.801 8.11376 148.746 11.392 147.952L113.52 124.32C111.606 127.167 110.587 130.521 110.592 133.952C110.592 140.576 114.304 146.32 119.712 149.152Z" fill="black"/>
<path d="M134.864 149.232L88.384 247.152C87.686 248.658 86.6945 250.011 85.4674 251.129C84.2403 252.248 82.8024 253.11 81.2379 253.666C79.6733 254.221 78.0136 254.46 76.3559 254.366C74.6983 254.272 73.0759 253.849 71.584 253.12C68.5621 251.6 66.2573 248.955 65.1652 245.754C64.0731 242.552 64.2809 239.05 65.744 236L111.504 139.552C113.792 146.24 120.032 151.04 127.36 151.04C130.064 151.04 132.608 150.4 134.864 149.232Z" fill="black"/>
<path d="M143.52 138.56L189.76 236C191.223 239.05 191.431 242.552 190.339 245.754C189.247 248.955 186.942 251.6 183.92 253.12C182.429 253.849 180.808 254.273 179.151 254.368C177.494 254.463 175.834 254.226 174.27 253.672C172.706 253.118 171.267 252.257 170.04 251.14C168.812 250.024 167.819 248.673 167.12 247.168L120.88 149.712C122.864 150.56 125.056 151.04 127.36 151.04C135.056 151.04 141.536 145.76 143.52 138.56Z" fill="black"/>
<path d="M135.392 148.96C138.054 147.465 140.268 145.285 141.804 142.646C143.34 140.007 144.143 137.005 144.128 133.952C144.128 130.224 142.96 126.784 140.96 123.968L244.608 147.952C247.888 148.743 250.724 150.796 252.498 153.667C254.272 156.538 254.84 159.992 254.08 163.28C253.733 164.905 253.068 166.445 252.122 167.811C251.177 169.177 249.97 170.343 248.571 171.24C247.173 172.137 245.611 172.748 243.975 173.038C242.339 173.327 240.661 173.29 239.04 172.928L135.392 148.96ZM139.936 14.4V122.656C138.378 120.846 136.448 119.394 134.278 118.398C132.108 117.402 129.748 116.887 127.36 116.887C124.972 116.887 122.612 117.402 120.442 118.398C118.272 119.394 116.342 120.846 114.784 122.656V14.416C114.784 7.328 120.416 1.6 127.36 1.6C134.304 1.6 139.936 7.328 139.936 14.4Z" fill="black"/>
<path d="M211.744 51.36C213.028 50.3126 214.508 49.5327 216.098 49.0663C217.688 48.5999 219.355 48.4564 221.001 48.6443C222.647 48.8322 224.239 49.3476 225.683 50.1603C227.127 50.9729 228.393 52.0663 229.408 53.376C231.499 56.0405 232.464 59.4179 232.097 62.7852C231.729 66.1524 230.057 69.2418 227.44 71.392L143.04 139.984C143.728 138.112 144.112 136.08 144.112 133.952C144.112 125.696 138.352 118.816 130.72 117.232L211.728 51.36H211.744Z" fill="black"/>
<path d="M127.36 52.832C83.36 52.832 47.712 89.152 47.712 133.952C47.712 178.752 83.376 215.072 127.36 215.072C171.36 215.072 207.008 178.752 207.008 133.952C207.008 89.152 171.344 52.832 127.36 52.832ZM22.56 133.952C22.56 75.008 69.488 27.232 127.36 27.232C185.248 27.232 232.16 75.008 232.16 133.952C232.16 192.912 185.248 240.688 127.36 240.688C69.488 240.688 22.56 192.912 22.56 133.968V133.952Z" fill="black"/>
<path d="M201.931 132.883C219.275 124.769 231.106 108.906 234.331 90.5291C220.334 59.3314 193.515 35.6949 160.215 26.088C171.467 42.392 176.837 61.7063 175.691 81.3337C190.425 93.7794 200.494 112.257 201.931 132.883ZM62.3314 103.096C43.5726 100.707 24.9988 107.606 12.3703 121.505C7.38285 155.99 17.9863 190.634 41.3691 216.504C40.1646 196.755 45.6114 176.947 56.9828 160.543C50.72 140.824 53.3028 120.015 62.3314 103.096ZM75.4514 190.835C68.6011 209.302 71.44 230.134 83.776 246.184C111.559 257.482 143.321 257.946 172.103 246.104C154.233 240.353 138.078 228.92 126.647 212.433C107.961 212.097 89.4263 204.787 75.4514 190.835ZM144.279 65.7474C140.834 47.1006 128.158 30.5863 109.467 22.9314C77.2068 28.0537 47.4171 46.9223 29.1657 75.8709C47.7143 70.1863 67.4286 70.8926 85.232 77.3314C102.437 65.304 123.527 61.0434 144.279 65.7474ZM196.322 166.902C189.269 183.814 176.386 197.046 160.487 204.867C174.645 217.677 194.327 222.6 212.72 218.202C233.415 196.289 244.455 167.464 244.491 138.182C232.112 152.595 215.157 162.817 196.322 166.902Z" fill="#449FD8"/>
<path d="M128.08 174.689C148.242 174.689 164.587 158.344 164.587 138.182C164.587 118.019 148.242 101.674 128.08 101.674C107.918 101.674 91.5726 118.019 91.5726 138.182C91.5726 158.344 107.918 174.689 128.08 174.689Z" fill="#F04D5C"/>
</g>
<defs>
<clipPath id="clip0_1_18">
<rect width="256" height="256" fill="white"/>
</clipPath>
</defs>
</svg>
